# xmcd CD database file
#
# Track frame offsets:
#	150
#	16645
#	36536
#	55441
#	79078
#	94560
#	121039
#	140844
#	161915
#	181597
#	197685
#	211298
#	224232
#	243510
#	258733
#	280609
#	293300
#	311398
#
# Disc length: 4404 seconds
#
# Revision: 1
# Processed by: cddbd v1.5.1PL2 Copyright (c) Steve Scherf et al.
# Submitted via: Feurio! 1.68 - http://www.feurio.com
#
DISCID=04113212
DTITLE=Various Artist - Bill Gaither's Best of Homecoming 2002
DYEAR=2002
DGENRE=Gospel
TTITLE0=Terry Blackwood, Sue Dodge, Ernie Haase, Talley Trio - This Land Is 
TTITLE0=Your Land
TTITLE1=Woody Wright, Terry balckwood, Sherman Andrus, Reggie Smith, Wesley 
TTITLE1=Pritchard, Guy Penrod - A Few Good Men
TTITLE2=Jessy Dixon - God Be With You
TTITLE3=Karen Peck and New River, Joy Gardner - Joy In My Heart
TTITLE4=Florida Boys - Stand By Me
TTITLE5=Booth Brothers - Still Feelin' Fine
TTITLE6=Babbie Mason - All Rise
TTITLE7=Terry Blackwood, Mel Tunney, Tanya Goodman Sykes, Larry Ford, David 
TTITLE7=Phelps - When I Survey The Wondrous Cross
TTITLE8=Alicia Williamson, Lillie Knauls, Joy Gardner - I Thank You, Lord
TTITLE9=Jeff Easterton (harmonica), Sherman Andrus - Precious Lord, Take My 
TTITLE9=Hand
TTITLE10=Kim Hopper, David Phelps - I'll Fly Away
TTITLE11=Isaacs - The Star-Spangled Banner
TTITLE12=Isaacs - He Understands My Tears
TTITLE13=Janet Paschal, Charlotte Ritchie, David Phelps - It Won't Rain Always
TTITLE14=Sandi Patti, Jessy Dixon - Love In Any Language
TTITLE15=Jake Hess, Terry Blackwood - When The Saints Go Marching In
TTITLE16=Alicia Williamson - I Love The Lord
TTITLE17=Martins - So High
EXTD=YEAR: 2002 ID3G: 38
EXTT0=
EXTT1=
EXTT2=
EXTT3=
EXTT4=
EXTT5=
EXTT6=
EXTT7=
EXTT8=
EXTT9=
EXTT10=
EXTT11=
EXTT12=
EXTT13=
EXTT14=
EXTT15=
EXTT16=
EXTT17=
PLAYORDER=
